<svg width="605" height="147" viewBox="0 0 605 147" fill="none" xmlns="http://www.w3.org/2000/svg">
<path d="M64.3219 110.968C62.7478 112.542 60.1956 112.542 58.6214 110.968C57.0473 109.394 57.0473 106.842 58.6214 105.268L79.7272 84.162C85.2756 78.6136 85.2756 69.6179 79.7272 64.0695L58.0411 42.3833C56.4388 40.7811 56.4388 38.1833 58.0411 36.5811C59.6433 34.9789 62.2411 34.9789 63.8433 36.5811L85.5294 58.2672C91.0778 63.8156 100.074 63.8156 105.622 58.2672L127.781 36.1081C129.355 34.534 131.907 34.534 133.482 36.1081C135.056 37.6822 135.056 40.2344 133.482 41.8086L111.323 63.9677C105.774 69.5161 105.774 78.5119 111.322 84.0603L132.906 105.643C134.508 107.246 134.508 109.843 132.906 111.446C131.303 113.048 128.706 113.048 127.103 111.446L105.52 89.8625C99.9719 84.3141 90.9761 84.3141 85.4277 89.8625L64.3219 110.968ZM155.01 80.7046C151.024 84.6909 144.561 84.6909 140.575 80.7046C136.588 76.7183 136.588 70.2552 140.575 66.2689C144.561 62.2826 151.024 62.2826 155.01 66.2689C158.997 70.2552 158.997 76.7183 155.01 80.7046ZM98.9018 108.181C97.2992 109.784 94.7008 109.784 93.0982 108.181C91.4956 106.578 91.4956 103.98 93.0982 102.377C94.7008 100.775 97.2992 100.775 98.9018 102.377C100.504 103.98 100.504 106.578 98.9018 108.181ZM51.4254 80.7046C47.4391 84.6909 40.976 84.6909 36.9897 80.7046C33.0034 76.7183 33.0034 70.2552 36.9897 66.2689C40.9761 62.2826 47.4391 62.2826 51.4254 66.2689C55.4118 70.2552 55.4118 76.7183 51.4254 80.7046Z" stroke="#F4F4F4" stroke-width="4"/>
<path d="M207.8 99.4538C204.575 99.4538 201.781 98.9164 199.416 97.8416C197.052 96.7667 195.224 95.2405 193.935 93.2629C192.688 91.2423 192.043 88.8777 192 86.1692H200.061C200.061 88.1038 200.749 89.63 202.125 90.7478C203.543 91.8226 205.457 92.36 207.864 92.36C210.186 92.36 211.991 91.8226 213.281 90.7478C214.614 89.673 215.28 88.1898 215.28 86.2981C215.28 84.7074 214.807 83.3317 213.862 82.1709C212.959 80.9671 211.647 80.1503 209.928 79.7203L204.511 78.2371C200.813 77.2913 197.954 75.5931 195.934 73.1425C193.956 70.692 192.967 67.7255 192.967 64.2432C192.967 61.5776 193.569 59.2561 194.773 57.2784C195.977 55.3008 197.675 53.7746 199.868 52.6998C202.103 51.625 204.726 51.0876 207.735 51.0876C212.292 51.0876 215.904 52.2698 218.569 54.6344C221.235 56.956 222.589 60.0944 222.632 64.0497H214.571C214.571 62.201 213.969 60.7608 212.765 59.729C211.561 58.6542 209.863 58.1168 207.671 58.1168C205.564 58.1168 203.93 58.6112 202.77 59.6C201.609 60.5888 201.028 61.9861 201.028 63.7917C201.028 65.4254 201.458 66.8227 202.318 67.9835C203.221 69.1013 204.511 69.8966 206.187 70.3695L211.798 71.9173C215.538 72.8631 218.397 74.5613 220.375 77.0118C222.352 79.4194 223.341 82.4074 223.341 85.9757C223.341 88.6412 222.696 91.0058 221.407 93.0694C220.117 95.0901 218.311 96.6593 215.99 97.7771C213.668 98.8949 210.938 99.4538 207.8 99.4538Z" fill="#F4F4F4"/>
<path d="M246.532 99.4538C243.522 99.4538 240.878 98.8949 238.6 97.7771C236.364 96.6163 234.623 95.0041 233.376 92.9404C232.13 90.8338 231.506 88.3618 231.506 85.5243V76.6249C231.506 73.7444 232.13 71.2724 233.376 69.2088C234.623 67.1451 236.364 65.5544 238.6 64.4366C240.878 63.2758 243.522 62.6954 246.532 62.6954C251.003 62.6954 254.571 63.8562 257.237 66.1778C259.902 68.4564 261.3 71.5733 261.429 75.5286H253.368C253.239 73.6799 252.572 72.2612 251.369 71.2724C250.208 70.2406 248.596 69.7247 246.532 69.7247C244.382 69.7247 242.684 70.3266 241.437 71.5303C240.191 72.6911 239.567 74.3678 239.567 76.5604V85.5243C239.567 87.7169 240.191 89.4151 241.437 90.6189C242.684 91.8226 244.382 92.4245 246.532 92.4245C248.596 92.4245 250.208 91.9301 251.369 90.9413C252.572 89.9095 253.239 88.4693 253.368 86.6206H261.429C261.3 90.5759 259.902 93.7143 257.237 96.0359C254.571 98.3145 251.003 99.4538 246.532 99.4538Z" fill="#F4F4F4"/>
<path d="M270.561 98.8089V91.4572H282.943V70.6275H272.173V63.3403H290.681V91.4572H301.644V98.8089H270.561ZM286.167 57.4074C284.533 57.4074 283.244 56.999 282.298 56.1821C281.352 55.3223 280.879 54.183 280.879 52.7642C280.879 51.3455 281.352 50.2277 282.298 49.4109C283.244 48.551 284.533 48.1211 286.167 48.1211C287.801 48.1211 289.09 48.551 290.036 49.4109C290.982 50.2277 291.455 51.3455 291.455 52.7642C291.455 54.183 290.982 55.3223 290.036 56.1821C289.09 56.999 287.801 57.4074 286.167 57.4074Z" fill="#F4F4F4"/>
<path d="M309.293 98.8089V63.3403H317.161V70.1116H319.353L317.161 71.9818C317.161 69.0583 317.999 66.7797 319.676 65.146C321.395 63.5123 323.738 62.6954 326.705 62.6954C330.187 62.6954 332.96 63.8562 335.024 66.1778C337.131 68.4994 338.184 71.6163 338.184 75.5286V98.8089H330.123V76.367C330.123 74.2173 329.564 72.5621 328.446 71.4014C327.328 70.2406 325.759 69.6602 323.738 69.6602C321.761 69.6602 320.192 70.2621 319.031 71.4658C317.913 72.6696 317.354 74.3893 317.354 76.6249V98.8089H309.293Z" fill="#F4F4F4"/>
<path d="M366.211 98.8089C362.815 98.8089 360.149 97.863 358.214 95.9714C356.323 94.0797 355.377 91.4787 355.377 88.1683V70.6275H345.768V63.3403H355.377V53.3446H363.503V63.3403H377.11V70.6275H363.503V88.1683C363.503 90.4039 364.599 91.5217 366.791 91.5217H376.465V98.8089H366.211Z" fill="#F4F4F4"/>
<path d="M386.564 98.8089V91.4572H398.946V70.6275H388.176V63.3403H406.684V91.4572H417.648V98.8089H386.564ZM402.17 57.4074C400.537 57.4074 399.247 56.999 398.301 56.1821C397.355 55.3223 396.882 54.183 396.882 52.7642C396.882 51.3455 397.355 50.2277 398.301 49.4109C399.247 48.551 400.537 48.1211 402.17 48.1211C403.804 48.1211 405.094 48.551 406.04 49.4109C406.985 50.2277 407.458 51.3455 407.458 52.7642C407.458 54.183 406.985 55.3223 406.04 56.1821C405.094 56.999 403.804 57.4074 402.17 57.4074Z" fill="#F4F4F4"/>
<path d="M445.094 98.8089C442.773 98.8089 440.731 98.336 438.968 97.3901C437.248 96.4443 435.894 95.1115 434.905 93.3919C433.916 91.6292 433.422 89.6085 433.422 87.33V59.0196H422.072V51.7324H441.483V87.33C441.483 88.6197 441.848 89.6515 442.579 90.4254C443.353 91.1563 444.385 91.5217 445.675 91.5217H456.38V98.8089H445.094Z" fill="#F4F4F4"/>
<path d="M483.762 98.8089C481.441 98.8089 479.398 98.336 477.636 97.3901C475.916 96.4443 474.562 95.1115 473.573 93.3919C472.584 91.6292 472.09 89.6085 472.09 87.33V59.0196H460.74V51.7324H480.151V87.33C480.151 88.6197 480.516 89.6515 481.247 90.4254C482.021 91.1563 483.053 91.5217 484.342 91.5217H495.048V98.8089H483.762Z" fill="#F4F4F4"/>
<path d="M513.079 99.4538C509.425 99.4538 506.544 98.4864 504.438 96.5518C502.331 94.6171 501.278 92.0161 501.278 88.7487C501.278 85.2663 502.438 82.5793 504.76 80.6877C507.082 78.796 510.371 77.8502 514.627 77.8502H523.462V74.8192C523.462 73.0995 522.903 71.7668 521.785 70.821C520.667 69.8321 519.141 69.3377 517.206 69.3377C515.444 69.3377 513.982 69.7247 512.821 70.4985C511.66 71.2724 510.972 72.3257 510.758 73.6584H502.89C503.277 70.3051 504.782 67.6395 507.404 65.6619C510.027 63.6843 513.38 62.6954 517.464 62.6954C521.807 62.6954 525.224 63.7917 527.718 65.9843C530.254 68.134 531.523 71.0574 531.523 74.7547V98.8089H523.72V92.618H522.43L523.72 90.8768C523.72 93.4993 522.752 95.5845 520.818 97.1322C518.883 98.6799 516.303 99.4538 513.079 99.4538ZM515.723 93.3919C518.002 93.3919 519.85 92.8115 521.269 91.6507C522.731 90.4899 523.462 88.9852 523.462 87.1365V82.8158H514.756C513.122 82.8158 511.811 83.2887 510.822 84.2345C509.833 85.1804 509.339 86.4271 509.339 87.9748C509.339 89.6515 509.898 90.9843 511.015 91.9731C512.176 92.9189 513.745 93.3919 515.723 93.3919Z" fill="#F4F4F4"/>
<path d="M542.396 98.8089V63.3403H550.006V70.1116H552.005L549.619 74.2388C549.619 70.4125 550.479 67.5321 552.198 65.5974C553.918 63.6628 556.454 62.6954 559.808 62.6954C563.634 62.6954 566.644 63.8777 568.836 66.2423C571.029 68.6069 572.125 71.8743 572.125 76.0445V78.624H563.677V76.6249C563.677 74.3463 563.075 72.5836 561.872 71.3369C560.711 70.0901 559.098 69.4667 557.035 69.4667C554.928 69.4667 553.295 70.0901 552.134 71.3369C551.016 72.5836 550.457 74.3463 550.457 76.6249V98.8089H542.396Z" fill="#F4F4F4"/>
</svg>
