<svg width="192" height="147" viewBox="0 0 192 147" fill="none" xmlns="http://www.w3.org/2000/svg">
<path d="M64.3219 110.968C62.7478 112.542 60.1956 112.542 58.6214 110.968C57.0473 109.394 57.0473 106.842 58.6214 105.268L79.7272 84.162C85.2756 78.6136 85.2756 69.6179 79.7272 64.0695L58.0411 42.3833C56.4388 40.7811 56.4388 38.1833 58.0411 36.5811C59.6433 34.9789 62.2411 34.9789 63.8433 36.5811L85.5294 58.2672C91.0778 63.8156 100.074 63.8156 105.622 58.2672L127.781 36.1081C129.355 34.534 131.907 34.534 133.482 36.1081C135.056 37.6822 135.056 40.2344 133.482 41.8086L111.323 63.9677C105.774 69.5161 105.774 78.5119 111.322 84.0603L132.906 105.643C134.508 107.246 134.508 109.843 132.906 111.446C131.303 113.048 128.706 113.048 127.103 111.446L105.52 89.8625C99.9719 84.3141 90.9761 84.3141 85.4277 89.8625L64.3219 110.968ZM155.01 80.7046C151.024 84.6909 144.561 84.6909 140.575 80.7046C136.588 76.7183 136.588 70.2552 140.575 66.2689C144.561 62.2826 151.024 62.2826 155.01 66.2689C158.997 70.2552 158.997 76.7183 155.01 80.7046ZM98.9018 108.181C97.2992 109.784 94.7008 109.784 93.0982 108.181C91.4956 106.578 91.4956 103.98 93.0982 102.377C94.7008 100.775 97.2992 100.775 98.9018 102.377C100.504 103.98 100.504 106.578 98.9018 108.181ZM51.4254 80.7046C47.4391 84.6909 40.976 84.6909 36.9897 80.7046C33.0034 76.7183 33.0034 70.2552 36.9897 66.2689C40.9761 62.2826 47.4391 62.2826 51.4254 66.2689C55.4118 70.2552 55.4118 76.7183 51.4254 80.7046Z" stroke="#F4F4F4" stroke-width="4"/>
</svg>
