<svg width="151" height="48" viewBox="0 0 151 48" fill="none" xmlns="http://www.w3.org/2000/svg">
<path fill-rule="evenodd" clip-rule="evenodd" d="M24 8C15.1634 8 8 15.1634 8 24C8 32.8366 15.1634 40 24 40C32.8366 40 40 32.8366 40 24C40 15.1634 32.8366 8 24 8ZM24.0119 33C24.5576 33 25 32.5576 25 32.0119V27.1219C25 26.0173 25.8954 25.1219 27 25.1219H32.0007C32.5529 25.1219 33.0005 24.6742 33.0005 24.122C33.0005 23.5698 32.5529 23.1222 32.0007 23.1222L27 23.1222C25.8954 23.1222 25 22.2268 25 21.1222V15.988C25 15.4424 24.5576 15 24.0119 15C23.4662 15 23.0239 15.4424 23.0239 15.988L23.0239 21.1222C23.0239 22.2268 22.1284 23.1222 21.0239 23.1222L15.9993 23.1222C15.4471 23.1222 14.9995 23.5698 14.9995 24.122C14.9995 24.6742 15.4471 25.1219 15.9993 25.1219H21.0239C22.1284 25.1219 23.0239 26.0173 23.0239 27.1219L23.0239 32.0119C23.0239 32.5576 23.4662 33 24.0119 33ZM32 18C32 19.1046 31.1046 20 30 20C28.8954 20 28 19.1046 28 18C28 16.8954 28.8954 16 30 16C31.1046 16 32 16.8954 32 18ZM30 31C30.5523 31 31 30.5523 31 30C31 29.4477 30.5523 29 30 29C29.4477 29 29 29.4477 29 30C29 30.5523 29.4477 31 30 31ZM19 18.0399C19 18.5922 18.5523 19.0399 18 19.0399C17.4477 19.0399 17 18.5922 17 18.0399C17 17.4876 17.4477 17.0399 18 17.0399C18.5523 17.0399 19 17.4876 19 18.0399ZM18 32C19.1046 32 20 31.1046 20 30C20 28.8954 19.1046 28 18 28C16.8954 28 16 28.8954 16 30C16 31.1046 16.8954 32 18 32Z" fill="#5CD6AD"/>
<path d="M51.2477 30.0761C50.4416 30.0761 49.743 29.9417 49.1519 29.673C48.5607 29.4043 48.1039 29.0228 47.7815 28.5284C47.4698 28.0232 47.3086 27.4321 47.2978 26.755H49.3131C49.3131 27.2386 49.4851 27.6202 49.829 27.8996C50.1837 28.1683 50.662 28.3027 51.2639 28.3027C51.8443 28.3027 52.2957 28.1683 52.6181 27.8996C52.9513 27.6309 53.1179 27.2601 53.1179 26.7872C53.1179 26.3895 52.9997 26.0456 52.7632 25.7554C52.5375 25.4544 52.2097 25.2502 51.7798 25.1427L50.4255 24.7719C49.5012 24.5355 48.7864 24.1109 48.2813 23.4983C47.7869 22.8857 47.5397 22.144 47.5397 21.2734C47.5397 20.6071 47.6901 20.0267 47.9911 19.5323C48.292 19.0379 48.7166 18.6563 49.2647 18.3876C49.8236 18.1189 50.4793 17.9845 51.2316 17.9845C52.3709 17.9845 53.2737 18.2801 53.9401 18.8713C54.6065 19.4517 54.9451 20.2363 54.9558 21.2251H52.9406C52.9406 20.7629 52.7901 20.4029 52.4891 20.1449C52.1882 19.8762 51.7636 19.7419 51.2155 19.7419C50.6888 19.7419 50.2804 19.8655 49.9902 20.1127C49.7 20.3599 49.5549 20.7092 49.5549 21.1606C49.5549 21.569 49.6624 21.9183 49.8774 22.2085C50.1031 22.488 50.4255 22.6868 50.8447 22.805L52.2473 23.192C53.1824 23.4284 53.8971 23.853 54.3915 24.4656C54.886 25.0675 55.1332 25.8145 55.1332 26.7066C55.1332 27.373 54.9719 27.9641 54.6495 28.48C54.3271 28.9852 53.8756 29.3775 53.2952 29.6569C52.7148 29.9364 52.0323 30.0761 51.2477 30.0761Z" fill="#F4F4F4"/>
<path d="M60.9308 30.0761C60.1784 30.0761 59.5174 29.9364 58.9478 29.6569C58.3889 29.3667 57.9536 28.9637 57.6419 28.4478C57.3302 27.9211 57.1744 27.3031 57.1744 26.5937V24.3689C57.1744 23.6488 57.3302 23.0308 57.6419 22.5148C57.9536 21.9989 58.3889 21.6013 58.9478 21.3218C59.5174 21.0316 60.1784 20.8865 60.9308 20.8865C62.0486 20.8865 62.9407 21.1767 63.6071 21.7571C64.2734 22.3268 64.6228 23.106 64.655 24.0948H62.6397C62.6075 23.6326 62.4409 23.278 62.14 23.0308C61.8498 22.7728 61.4467 22.6438 60.9308 22.6438C60.3934 22.6438 59.9689 22.7943 59.6572 23.0952C59.3455 23.3854 59.1896 23.8046 59.1896 24.3528V26.5937C59.1896 27.1419 59.3455 27.5664 59.6572 27.8674C59.9689 28.1683 60.3934 28.3188 60.9308 28.3188C61.4467 28.3188 61.8498 28.1952 62.14 27.948C62.4409 27.69 62.6075 27.33 62.6397 26.8678H64.655C64.6228 27.8566 64.2734 28.6412 63.6071 29.2216C62.9407 29.7913 62.0486 30.0761 60.9308 30.0761Z" fill="#F4F4F4"/>
<path d="M66.938 29.9149V28.077H70.0335V22.8695H67.3411V21.0477H71.9681V28.077H74.7089V29.9149H66.938ZM70.8396 19.5645C70.4312 19.5645 70.1087 19.4624 69.8723 19.2582C69.6358 19.0432 69.5176 18.7584 69.5176 18.4037C69.5176 18.049 69.6358 17.7696 69.8723 17.5654C70.1087 17.3504 70.4312 17.2429 70.8396 17.2429C71.248 17.2429 71.5704 17.3504 71.8069 17.5654C72.0434 17.7696 72.1616 18.049 72.1616 18.4037C72.1616 18.7584 72.0434 19.0432 71.8069 19.2582C71.5704 19.4624 71.248 19.5645 70.8396 19.5645Z" fill="#F4F4F4"/>
<path d="M76.6211 29.9149V21.0477H78.588V22.7406H79.1361L78.588 23.2081C78.588 22.4772 78.7976 21.9076 79.2168 21.4992C79.6467 21.0907 80.2325 20.8865 80.9741 20.8865C81.8447 20.8865 82.5379 21.1767 83.0538 21.7571C83.5805 22.3375 83.8438 23.1167 83.8438 24.0948V29.9149H81.8285V24.3044C81.8285 23.767 81.6888 23.3532 81.4094 23.063C81.1299 22.7728 80.7376 22.6277 80.2325 22.6277C79.738 22.6277 79.3457 22.7782 79.0555 23.0791C78.7761 23.3801 78.6364 23.81 78.6364 24.3689V29.9149H76.6211Z" fill="#F4F4F4"/>
<path d="M90.8506 29.9149C90.0015 29.9149 89.3351 29.6784 88.8515 29.2055C88.3785 28.7326 88.1421 28.0823 88.1421 27.2547V22.8695H85.7399V21.0477H88.1421V18.5488H90.1735V21.0477H93.5752V22.8695H90.1735V27.2547C90.1735 27.8136 90.4475 28.0931 90.9957 28.0931H93.414V29.9149H90.8506Z" fill="#F4F4F4"/>
<path d="M95.9389 29.9149V28.077H99.0343V22.8695H96.3419V21.0477H100.969V28.077H103.71V29.9149H95.9389ZM99.8404 19.5645C99.432 19.5645 99.1095 19.4624 98.8731 19.2582C98.6366 19.0432 98.5184 18.7584 98.5184 18.4037C98.5184 18.049 98.6366 17.7696 98.8731 17.5654C99.1095 17.3504 99.432 17.2429 99.8404 17.2429C100.249 17.2429 100.571 17.3504 100.808 17.5654C101.044 17.7696 101.162 18.049 101.162 18.4037C101.162 18.7584 101.044 19.0432 100.808 19.2582C100.571 19.4624 100.249 19.5645 99.8404 19.5645Z" fill="#F4F4F4"/>
<path d="M110.571 29.9149C109.991 29.9149 109.48 29.7967 109.04 29.5602C108.61 29.3237 108.271 28.9905 108.024 28.5606C107.777 28.12 107.653 27.6148 107.653 27.0452V19.9676H104.816V18.1458H109.669V27.0452C109.669 27.3676 109.76 27.6255 109.943 27.819C110.136 28.0017 110.394 28.0931 110.717 28.0931H113.393V29.9149H110.571Z" fill="#F4F4F4"/>
<path d="M120.238 29.9149C119.658 29.9149 119.147 29.7967 118.707 29.5602C118.277 29.3237 117.938 28.9905 117.691 28.5606C117.444 28.12 117.32 27.6148 117.32 27.0452V19.9676H114.483V18.1458H119.336V27.0452C119.336 27.3676 119.427 27.6255 119.61 27.819C119.803 28.0017 120.061 28.0931 120.383 28.0931H123.06V29.9149H120.238Z" fill="#F4F4F4"/>
<path d="M127.568 30.0761C126.654 30.0761 125.934 29.8343 125.407 29.3506C124.881 28.8669 124.617 28.2167 124.617 27.3998C124.617 26.5292 124.907 25.8575 125.488 25.3846C126.068 24.9117 126.89 24.6752 127.955 24.6752H130.163V23.9175C130.163 23.4875 130.024 23.1544 129.744 22.9179C129.465 22.6707 129.083 22.5471 128.599 22.5471C128.159 22.5471 127.793 22.6438 127.503 22.8373C127.213 23.0308 127.041 23.2941 126.987 23.6273H125.02C125.117 22.7889 125.493 22.1225 126.149 21.6281C126.804 21.1337 127.643 20.8865 128.664 20.8865C129.749 20.8865 130.604 21.1606 131.227 21.7087C131.861 22.2461 132.179 22.977 132.179 23.9013V29.9149H130.228V28.3672H129.905L130.228 27.9319C130.228 28.5875 129.986 29.1088 129.502 29.4957C129.019 29.8826 128.374 30.0761 127.568 30.0761ZM128.229 28.5606C128.798 28.5606 129.26 28.4155 129.615 28.1253C129.981 27.8351 130.163 27.459 130.163 26.9968V25.9166H127.987C127.578 25.9166 127.251 26.0348 127.003 26.2713C126.756 26.5077 126.633 26.8194 126.633 27.2064C126.633 27.6255 126.772 27.9587 127.052 28.2059C127.342 28.4424 127.734 28.5606 128.229 28.5606Z" fill="#F4F4F4"/>
<path d="M134.897 29.9149V21.0477H136.799V22.7406H137.299L136.703 23.7724C136.703 22.8158 136.917 22.0957 137.347 21.612C137.777 21.1284 138.411 20.8865 139.25 20.8865C140.206 20.8865 140.959 21.1821 141.507 21.7732C142.055 22.3644 142.329 23.1812 142.329 24.2238V24.8687H140.217V24.3689C140.217 23.7992 140.067 23.3586 139.766 23.0469C139.476 22.7352 139.072 22.5793 138.557 22.5793C138.03 22.5793 137.621 22.7352 137.331 23.0469C137.052 23.3586 136.912 23.7992 136.912 24.3689V29.9149H134.897Z" fill="#F4F4F4"/>
</svg>
