<svg width="192" height="192" viewBox="0 0 192 192" fill="none" xmlns="http://www.w3.org/2000/svg">
<path fill-rule="evenodd" clip-rule="evenodd" d="M96 32C60.6538 32 32 60.6538 32 96C32 131.346 60.6538 160 96 160C131.346 160 160 131.346 160 96C160 60.6538 131.346 32 96 32ZM96.0477 132C98.2305 132 99.9999 130.23 99.9999 128.048V108.487C99.9999 104.069 103.582 100.487 108 100.487H128.003C130.211 100.487 132.002 98.6969 132.002 96.4881C132.002 94.2793 130.211 92.4887 128.003 92.4887L108 92.4887C103.582 92.4887 99.9999 88.907 99.9999 84.4887V63.9522C99.9999 61.7694 98.2305 60 96.0477 60C93.865 60 92.0955 61.7694 92.0955 63.9522L92.0955 84.4887C92.0955 88.907 88.5138 92.4887 84.0955 92.4887L63.9973 92.4887C61.7885 92.4887 59.998 94.2793 59.998 96.4881C59.998 98.6969 61.7885 100.487 63.9973 100.487H84.0955C88.5138 100.487 92.0955 104.069 92.0955 108.487L92.0955 128.048C92.0955 130.23 93.865 132 96.0477 132ZM128 72C128 76.4183 124.418 80 120 80C115.582 80 112 76.4183 112 72C112 67.5817 115.582 64 120 64C124.418 64 128 67.5817 128 72ZM120 124C122.209 124 124 122.209 124 120C124 117.791 122.209 116 120 116C117.791 116 116 117.791 116 120C116 122.209 117.791 124 120 124ZM76 72.1595C76 74.3687 74.2091 76.1595 72 76.1595C69.7909 76.1595 68 74.3687 68 72.1595C68 69.9504 69.7909 68.1595 72 68.1595C74.2091 68.1595 76 69.9504 76 72.1595ZM72 128C76.4183 128 80 124.418 80 120C80 115.582 76.4183 112 72 112C67.5817 112 64 115.582 64 120C64 124.418 67.5817 128 72 128Z" fill="#5CD6AD"/>
</svg>
