<svg width="602" height="192" viewBox="0 0 602 192" fill="none" xmlns="http://www.w3.org/2000/svg">
<path fill-rule="evenodd" clip-rule="evenodd" d="M96.3164 32C60.9702 32 32.3164 60.6538 32.3164 96C32.3164 131.346 60.9702 160 96.3164 160C131.663 160 160.316 131.346 160.316 96C160.316 60.6538 131.663 32 96.3164 32ZM96.3641 132C98.5469 132 100.316 130.23 100.316 128.048V108.487C100.316 104.069 103.898 100.487 108.316 100.487H128.319C130.528 100.487 132.318 98.6969 132.318 96.4881C132.318 94.2793 130.528 92.4887 128.319 92.4887L108.316 92.4887C103.898 92.4887 100.316 88.907 100.316 84.4887V63.9522C100.316 61.7694 98.5469 60 96.3641 60C94.1814 60 92.4119 61.7694 92.4119 63.9522L92.4119 84.4887C92.4119 88.907 88.8302 92.4887 84.4119 92.4887L64.3137 92.4887C62.1049 92.4887 60.3144 94.2793 60.3144 96.4881C60.3144 98.6969 62.1049 100.487 64.3137 100.487H84.4119C88.8302 100.487 92.4119 104.069 92.4119 108.487L92.4119 128.048C92.4119 130.23 94.1814 132 96.3641 132ZM128.316 72C128.316 76.4183 124.735 80 120.316 80C115.898 80 112.316 76.4183 112.316 72C112.316 67.5817 115.898 64 120.316 64C124.735 64 128.316 67.5817 128.316 72ZM120.316 124C122.526 124 124.316 122.209 124.316 120C124.316 117.791 122.526 116 120.316 116C118.107 116 116.316 117.791 116.316 120C116.316 122.209 118.107 124 120.316 124ZM76.3164 72.1595C76.3164 74.3687 74.5255 76.1595 72.3164 76.1595C70.1073 76.1595 68.3164 74.3687 68.3164 72.1595C68.3164 69.9504 70.1073 68.1595 72.3164 68.1595C74.5255 68.1595 76.3164 69.9504 76.3164 72.1595ZM72.3164 128C76.7347 128 80.3164 124.418 80.3164 120C80.3164 115.582 76.7347 112 72.3164 112C67.8981 112 64.3164 115.582 64.3164 120C64.3164 124.418 67.8981 128 72.3164 128Z" fill="#5CD6AD"/>
<path d="M205.307 120.304C202.083 120.304 199.288 119.767 196.924 118.692C194.559 117.617 192.732 116.091 191.442 114.114C190.196 112.093 189.551 109.728 189.508 107.02H197.569C197.569 108.954 198.257 110.481 199.632 111.598C201.051 112.673 202.964 113.211 205.372 113.211C207.693 113.211 209.499 112.673 210.789 111.598C212.122 110.524 212.788 109.04 212.788 107.149C212.788 105.558 212.315 104.182 211.369 103.022C210.466 101.818 209.155 101.001 207.435 100.571L202.018 99.0878C198.321 98.1419 195.462 96.4437 193.442 93.9932C191.464 91.5426 190.475 88.5762 190.475 85.0938C190.475 82.4283 191.077 80.1067 192.281 78.1291C193.485 76.1514 195.183 74.6252 197.375 73.5504C199.611 72.4756 202.233 71.9382 205.243 71.9382C209.8 71.9382 213.411 73.1205 216.077 75.485C218.742 77.8066 220.097 80.9451 220.14 84.9003H212.079C212.079 83.0517 211.477 81.6114 210.273 80.5796C209.069 79.5048 207.371 78.9674 205.178 78.9674C203.072 78.9674 201.438 79.4618 200.277 80.4506C199.116 81.4395 198.536 82.8367 198.536 84.6424C198.536 86.2761 198.966 87.6733 199.826 88.8341C200.729 89.9519 202.018 90.7473 203.695 91.2202L209.306 92.7679C213.046 93.7137 215.905 95.4119 217.883 97.8625C219.86 100.27 220.849 103.258 220.849 106.826C220.849 109.492 220.204 111.856 218.914 113.92C217.625 115.941 215.819 117.51 213.497 118.628C211.176 119.745 208.446 120.304 205.307 120.304Z" fill="#0D0D0D"/>
<path d="M244.04 120.304C241.03 120.304 238.386 119.745 236.108 118.628C233.872 117.467 232.131 115.855 230.884 113.791C229.637 111.684 229.014 109.212 229.014 106.375V97.4755C229.014 94.5951 229.637 92.123 230.884 90.0594C232.131 87.9958 233.872 86.4051 236.108 85.2873C238.386 84.1265 241.03 83.5461 244.04 83.5461C248.511 83.5461 252.079 84.7069 254.745 87.0284C257.41 89.307 258.807 92.424 258.936 96.3792H250.875C250.746 94.5306 250.08 93.1118 248.876 92.123C247.715 91.0912 246.103 90.5753 244.04 90.5753C241.89 90.5753 240.192 91.1772 238.945 92.381C237.698 93.5418 237.075 95.2185 237.075 97.4111V106.375C237.075 108.568 237.698 110.266 238.945 111.47C240.192 112.673 241.89 113.275 244.04 113.275C246.103 113.275 247.715 112.781 248.876 111.792C250.08 110.76 250.746 109.32 250.875 107.471H258.936C258.807 111.427 257.41 114.565 254.745 116.887C252.079 119.165 248.511 120.304 244.04 120.304Z" fill="#0D0D0D"/>
<path d="M268.069 119.66V112.308H280.45V91.4781H269.681V84.191H288.189V112.308H299.152V119.66H268.069ZM283.675 78.258C282.041 78.258 280.751 77.8496 279.805 77.0328C278.86 76.1729 278.387 75.0336 278.387 73.6149C278.387 72.1961 278.86 71.0783 279.805 70.2615C280.751 69.4017 282.041 68.9717 283.675 68.9717C285.308 68.9717 286.598 69.4017 287.544 70.2615C288.49 71.0783 288.963 72.1961 288.963 73.6149C288.963 75.0336 288.49 76.1729 287.544 77.0328C286.598 77.8496 285.308 78.258 283.675 78.258Z" fill="#0D0D0D"/>
<path d="M306.801 119.66V84.191H314.668V90.9622H316.861L314.668 92.8324C314.668 89.9089 315.507 87.6303 317.183 85.9966C318.903 84.3629 321.246 83.5461 324.213 83.5461C327.695 83.5461 330.468 84.7069 332.532 87.0284C334.638 89.35 335.692 92.467 335.692 96.3792V119.66H327.631V97.2176C327.631 95.068 327.072 93.4128 325.954 92.252C324.836 91.0912 323.267 90.5108 321.246 90.5108C319.269 90.5108 317.699 91.1127 316.539 92.3165C315.421 93.5203 314.862 95.24 314.862 97.4755V119.66H306.801Z" fill="#0D0D0D"/>
<path d="M363.719 119.66C360.322 119.66 357.657 118.714 355.722 116.822C353.831 114.93 352.885 112.329 352.885 109.019V91.4781H343.276V84.191H352.885V74.1953H361.01V84.191H374.617V91.4781H361.01V109.019C361.01 111.255 362.107 112.372 364.299 112.372H373.972V119.66H363.719Z" fill="#0D0D0D"/>
<path d="M384.072 119.66V112.308H396.454V91.4781H385.684V84.191H404.192V112.308H415.155V119.66H384.072ZM399.678 78.258C398.044 78.258 396.755 77.8496 395.809 77.0328C394.863 76.1729 394.39 75.0336 394.39 73.6149C394.39 72.1961 394.863 71.0783 395.809 70.2615C396.755 69.4017 398.044 68.9717 399.678 68.9717C401.312 68.9717 402.602 69.4017 403.547 70.2615C404.493 71.0783 404.966 72.1961 404.966 73.6149C404.966 75.0336 404.493 76.1729 403.547 77.0328C402.602 77.8496 401.312 78.258 399.678 78.258Z" fill="#0D0D0D"/>
<path d="M442.602 119.66C440.28 119.66 438.238 119.187 436.476 118.241C434.756 117.295 433.402 115.962 432.413 114.243C431.424 112.48 430.93 110.459 430.93 108.181V79.8702H419.58V72.5831H438.991V108.181C438.991 109.47 439.356 110.502 440.087 111.276C440.861 112.007 441.893 112.372 443.182 112.372H453.888V119.66H442.602Z" fill="#0D0D0D"/>
<path d="M481.27 119.66C478.948 119.66 476.906 119.187 475.143 118.241C473.424 117.295 472.069 115.962 471.081 114.243C470.092 112.48 469.597 110.459 469.597 108.181V79.8702H458.247V72.5831H477.658V108.181C477.658 109.47 478.024 110.502 478.755 111.276C479.529 112.007 480.56 112.372 481.85 112.372H492.555V119.66H481.27Z" fill="#0D0D0D"/>
<path d="M510.587 120.304C506.932 120.304 504.052 119.337 501.945 117.402C499.839 115.468 498.785 112.867 498.785 109.599C498.785 106.117 499.946 103.43 502.268 101.538C504.589 99.6467 507.878 98.7008 512.135 98.7008H520.969V95.6699C520.969 93.9502 520.411 92.6174 519.293 91.6716C518.175 90.6828 516.649 90.1884 514.714 90.1884C512.951 90.1884 511.49 90.5753 510.329 91.3492C509.168 92.123 508.48 93.1763 508.265 94.5091H500.398C500.785 91.1557 502.289 88.4902 504.912 86.5125C507.534 84.5349 510.888 83.5461 514.972 83.5461C519.314 83.5461 522.732 84.6424 525.226 86.835C527.762 88.9846 529.03 91.9081 529.03 95.6054V119.66H521.227V113.469H519.938L521.227 111.727C521.227 114.35 520.26 116.435 518.325 117.983C516.391 119.531 513.811 120.304 510.587 120.304ZM513.231 114.243C515.509 114.243 517.358 113.662 518.777 112.501C520.239 111.341 520.969 109.836 520.969 107.987V103.666H512.263C510.63 103.666 509.319 104.139 508.33 105.085C507.341 106.031 506.846 107.278 506.846 108.825C506.846 110.502 507.405 111.835 508.523 112.824C509.684 113.77 511.253 114.243 513.231 114.243Z" fill="#0D0D0D"/>
<path d="M539.904 119.66V84.191H547.513V90.9622H549.513L547.126 95.0895C547.126 91.2632 547.986 88.3827 549.706 86.4481C551.426 84.5134 553.962 83.5461 557.316 83.5461C561.142 83.5461 564.151 84.7284 566.344 87.0929C568.537 89.4575 569.633 92.7249 569.633 96.8952V99.4747H561.185V97.4755C561.185 95.197 560.583 93.4343 559.379 92.1875C558.218 90.9407 556.606 90.3173 554.543 90.3173C552.436 90.3173 550.802 90.9407 549.642 92.1875C548.524 93.4343 547.965 95.197 547.965 97.4755V119.66H539.904Z" fill="#0D0D0D"/>
</svg>
