<svg width="60" height="56" viewBox="0 0 60 56" fill="none" xmlns="http://www.w3.org/2000/svg">
<path d="M24.4273 0.121582C21.7264 0.722023 19.0545 1.55811 16.5496 2.81893C16.6068 5.0308 16.7498 7.15008 17.0397 9.30281C16.0669 9.92606 15.0445 10.461 14.1359 11.1906C13.2127 11.9008 12.2697 12.5802 11.4338 13.4108C9.76372 12.3062 7.99637 11.2681 6.17543 10.3518C4.21259 12.4642 2.37717 14.7443 0.87793 17.2956C2.05618 19.1451 3.31992 21.004 4.49031 22.4536V35.0549V36.6555V38.1122C4.51895 38.1124 4.5478 38.1133 4.57618 38.116L14.1758 39.0417C14.6786 39.0902 15.0726 39.495 15.1076 39.999L15.4037 44.2365L23.7774 44.8341L24.3541 40.9229C24.4289 40.4158 24.8641 40.0398 25.377 40.0398H35.5049C36.0175 40.0398 36.4526 40.4158 36.5274 40.9229L37.1041 44.8341L45.4782 44.2365L45.7739 39.999C45.8092 39.495 46.2029 39.0905 46.7058 39.0417L56.3016 38.116C56.3299 38.1133 56.3585 38.1125 56.3871 38.1122V36.8626L56.3912 36.8616V22.4536C57.743 20.7519 59.0229 18.8749 60.0036 17.2956C58.5049 14.7443 56.6686 12.4642 54.7058 10.3518C52.8853 11.2681 51.1171 12.3062 49.4471 13.4108C48.6114 12.5802 47.6701 11.9008 46.7456 11.1906C45.8372 10.461 44.8134 9.92606 43.8425 9.30281C44.1316 7.15008 44.2748 5.0308 44.3323 2.81893C41.8271 1.55811 39.1555 0.722023 36.4532 0.121582C35.3743 1.93484 34.3878 3.8986 33.5285 5.8182C32.5095 5.64794 31.4859 5.58481 30.4609 5.57261V5.5709C30.4537 5.5709 30.447 5.57261 30.4409 5.57261C30.4346 5.57261 30.4277 5.5709 30.4214 5.5709V5.57261C29.3945 5.58481 28.3716 5.64794 27.3524 5.8182C26.4936 3.8986 25.5078 1.93484 24.4273 0.121582ZM16.8326 23.0279C20.0279 23.0279 22.6178 25.6159 22.6178 28.8101C22.6178 32.0064 20.0279 34.5957 16.8326 34.5957C13.6389 34.5957 11.0484 32.0064 11.0484 28.8101C11.0484 25.6159 13.6389 23.0279 16.8326 23.0279ZM44.0496 23.0279C47.243 23.0279 49.8331 25.6159 49.8331 28.8101C49.8331 32.0064 47.243 34.5957 44.0496 34.5957C40.8538 34.5957 38.264 32.0064 38.264 28.8101C38.264 25.6159 40.8538 23.0279 44.0496 23.0279ZM30.4402 26.4116C31.4687 26.4116 32.3043 27.1703 32.3043 28.1039V33.4296C32.3043 34.3639 31.4687 35.1219 30.4402 35.1219C29.4118 35.1219 28.5782 34.3639 28.5782 33.4296V28.1039C28.5782 27.1703 29.4118 26.4116 30.4402 26.4116Z" fill="#005C3D"/>
<path d="M47.7753 41.0156L47.478 45.2757C47.4422 45.7892 47.0338 46.1978 46.5203 46.2347L36.295 46.9643C36.2701 46.9662 36.2452 46.967 36.2205 46.967C35.7124 46.967 35.274 46.5941 35.1989 46.0838L34.6125 42.1072H26.2692L25.6828 46.0838C25.6041 46.619 25.1256 47.0038 24.5867 46.9643L14.3615 46.2347C13.848 46.1978 13.4396 45.7891 13.4038 45.2757L13.1065 41.0156L4.47461 40.1833C4.47859 41.1111 4.49052 42.1274 4.49052 42.3297C4.49052 51.4461 16.0551 55.828 30.4232 55.8783H30.4407H30.4585C44.8266 55.828 56.3873 51.4461 56.3873 42.3297C56.3873 42.1236 56.3997 41.1116 56.404 40.1833L47.7753 41.0156Z" fill="#005C3D"/>
<path d="M21.2259 29.1532C21.2259 31.2733 19.5076 32.9917 17.3859 32.9917C15.2653 32.9917 13.5459 31.2733 13.5459 29.1532C13.5459 27.0331 15.2653 25.3132 17.3859 25.3132C19.5076 25.3132 21.2259 27.0331 21.2259 29.1532Z" fill="#005C3D"/>
<path d="M39.6562 29.1532C39.6562 31.2733 41.374 32.9917 43.4941 32.9917C45.6164 32.9917 47.3341 31.2733 47.3341 29.1532C47.3341 27.0331 45.6164 25.3132 43.4941 25.3132C41.374 25.3132 39.6562 27.0331 39.6562 29.1532Z" fill="#005C3D"/>
</svg>
