<svg width="60" height="56" viewBox="0 0 60 56" fill="none" xmlns="http://www.w3.org/2000/svg">
<path d="M24.4268 0.121582C21.7259 0.722023 19.054 1.55811 16.5491 2.81893C16.6064 5.0308 16.7493 7.15008 17.0392 9.30281C16.0664 9.92606 15.0441 10.461 14.1354 11.1906C13.2122 11.9008 12.2692 12.5802 11.4333 13.4108C9.76323 12.3062 7.99588 11.2681 6.17494 10.3518C4.2121 12.4642 2.37669 14.7443 0.877441 17.2956C2.05569 19.1451 3.31943 21.004 4.48982 22.4536V35.0549V36.6555V38.1122C4.51847 38.1124 4.54732 38.1133 4.57569 38.116L14.1753 39.0417C14.6781 39.0902 15.0721 39.495 15.1071 39.999L15.4032 44.2365L23.7769 44.8341L24.3536 40.9229C24.4284 40.4158 24.8636 40.0398 25.3765 40.0398H35.5044C36.017 40.0398 36.4521 40.4158 36.5269 40.9229L37.1036 44.8341L45.4777 44.2365L45.7734 39.999C45.8087 39.495 46.2024 39.0905 46.7053 39.0417L56.3011 38.116C56.3294 38.1133 56.358 38.1125 56.3866 38.1122V36.8626L56.3907 36.8616V22.4536C57.7425 20.7519 59.0224 18.8749 60.0031 17.2956C58.5044 14.7443 56.6681 12.4642 54.7053 10.3518C52.8848 11.2681 51.1166 12.3062 49.4466 13.4108C48.6109 12.5802 47.6696 11.9008 46.7451 11.1906C45.8368 10.461 44.813 9.92606 43.842 9.30281C44.1311 7.15008 44.2743 5.0308 44.3318 2.81893C41.8266 1.55811 39.155 0.722023 36.4527 0.121582C35.3738 1.93484 34.3873 3.8986 33.528 5.8182C32.509 5.64794 31.4854 5.58481 30.4604 5.57261V5.5709C30.4532 5.5709 30.4465 5.57261 30.4404 5.57261C30.4341 5.57261 30.4272 5.5709 30.4209 5.5709V5.57261C29.394 5.58481 28.3711 5.64794 27.3519 5.8182C26.4931 3.8986 25.5073 1.93484 24.4268 0.121582ZM16.8321 23.0279C20.0274 23.0279 22.6173 25.6159 22.6173 28.8101C22.6173 32.0064 20.0274 34.5957 16.8321 34.5957C13.6384 34.5957 11.0479 32.0064 11.0479 28.8101C11.0479 25.6159 13.6384 23.0279 16.8321 23.0279ZM44.0491 23.0279C47.2426 23.0279 49.8327 25.6159 49.8327 28.8101C49.8327 32.0064 47.2426 34.5957 44.0491 34.5957C40.8533 34.5957 38.2635 32.0064 38.2635 28.8101C38.2635 25.6159 40.8533 23.0279 44.0491 23.0279ZM30.4398 26.4116C31.4683 26.4116 32.3038 27.1703 32.3038 28.1039V33.4296C32.3038 34.3639 31.4683 35.1219 30.4398 35.1219C29.4113 35.1219 28.5778 34.3639 28.5778 33.4296V28.1039C28.5778 27.1703 29.4113 26.4116 30.4398 26.4116Z" fill="#5CD6AD"/>
<path d="M47.7748 41.0156L47.4775 45.2757C47.4417 45.7892 47.0333 46.1978 46.5198 46.2347L36.2946 46.9643C36.2696 46.9662 36.2447 46.967 36.22 46.967C35.7119 46.967 35.2735 46.5941 35.1984 46.0838L34.612 42.1072H26.2687L25.6824 46.0838C25.6036 46.619 25.1251 47.0038 24.5862 46.9643L14.361 46.2347C13.8475 46.1978 13.4391 45.7891 13.4033 45.2757L13.106 41.0156L4.47412 40.1833C4.4781 41.1111 4.49003 42.1274 4.49003 42.3297C4.49003 51.4461 16.0546 55.828 30.4228 55.8783H30.4403H30.458C44.8262 55.828 56.3868 51.4461 56.3868 42.3297C56.3868 42.1236 56.3992 41.1116 56.4035 40.1833L47.7748 41.0156Z" fill="#5CD6AD"/>
<path d="M21.2254 29.1532C21.2254 31.2733 19.5071 32.9917 17.3854 32.9917C15.2648 32.9917 13.5454 31.2733 13.5454 29.1532C13.5454 27.0331 15.2648 25.3132 17.3854 25.3132C19.5071 25.3132 21.2254 27.0331 21.2254 29.1532Z" fill="#5CD6AD"/>
<path d="M39.6558 29.1532C39.6558 31.2733 41.3735 32.9917 43.4936 32.9917C45.6159 32.9917 47.3337 31.2733 47.3337 29.1532C47.3337 27.0331 45.6159 25.3132 43.4936 25.3132C41.3735 25.3132 39.6558 27.0331 39.6558 29.1532Z" fill="#5CD6AD"/>
</svg>
