<svg width="50" height="56" viewBox="0 0 50 56" fill="none" xmlns="http://www.w3.org/2000/svg">
<path d="M22.5283 0.121582L0.00341797 13.1264V39.1339L8.63919 34.1463V23.955C8.64311 23.7799 8.7372 23.6192 8.88879 23.5338C8.96326 23.4901 9.0479 23.4668 9.13422 23.4662C9.22053 23.4656 9.3055 23.4877 9.38058 23.5303L19.8729 29.5851C20.0231 29.6723 20.1478 29.7975 20.2345 29.9482C20.3211 30.0988 20.3666 30.2695 20.3664 30.4433V42.5529C20.3654 42.6392 20.3422 42.7238 20.2991 42.7985C20.256 42.8733 20.1945 42.9357 20.1203 42.9798C20.0462 43.0233 19.9621 43.0467 19.8762 43.0476C19.7903 43.0485 19.7057 43.0269 19.6307 42.9851L10.8011 37.8807L2.16225 42.8727L24.681 55.8784L47.2024 42.8731L38.5701 37.8811L29.7444 42.979C29.6693 43.0203 29.5849 43.0417 29.4992 43.041C29.4135 43.0404 29.3293 43.0179 29.2548 42.9755C29.1804 42.932 29.1184 42.87 29.0751 42.7955C29.0317 42.721 29.0084 42.6365 29.0074 42.5503V30.4428C29.0074 30.0856 29.1921 29.7633 29.5009 29.5856L39.9876 23.5294C40.0622 23.4868 40.1469 23.4646 40.2329 23.4652C40.3188 23.4658 40.4031 23.4892 40.4772 23.5329C40.6305 23.6183 40.7264 23.779 40.7277 23.9541V34.1454L49.3656 39.1348V13.1264H49.3617L26.8455 0.121582V10.0968L35.6708 15.1916C35.8219 15.2805 35.9125 15.4429 35.9125 15.6202C35.9125 15.7958 35.8202 15.9569 35.6708 16.0454L25.1802 22.1054C25.0295 22.1909 24.8591 22.2358 24.6858 22.2358C24.5125 22.2358 24.3422 22.1909 24.1914 22.1054L13.7039 16.0454C13.6294 16.0023 13.5676 15.9402 13.5248 15.8656C13.482 15.7909 13.4596 15.7063 13.46 15.6202C13.4592 15.5336 13.4814 15.4483 13.5242 15.3731C13.5671 15.2978 13.629 15.2352 13.7039 15.1916L22.5279 10.0968L22.5283 0.121582Z" fill="#5CD6AD"/>
</svg>
