<svg width="50" height="56" viewBox="0 0 50 56" fill="none" xmlns="http://www.w3.org/2000/svg">
<path d="M22.5278 0.121582L0.00292969 13.1264V39.1339L8.6387 34.1463V23.955C8.64262 23.7799 8.73671 23.6192 8.8883 23.5338C8.96277 23.4901 9.04741 23.4668 9.13373 23.4662C9.22005 23.4656 9.30501 23.4877 9.38009 23.5303L19.8724 29.5851C20.0227 29.6723 20.1474 29.7975 20.234 29.9482C20.3206 30.0988 20.3661 30.2695 20.3659 30.4433V42.5529C20.3649 42.6392 20.3417 42.7238 20.2986 42.7985C20.2556 42.8733 20.194 42.9357 20.1198 42.9798C20.0457 43.0233 19.9616 43.0467 19.8757 43.0476C19.7898 43.0485 19.7052 43.0269 19.6302 42.9851L10.8006 37.8807L2.16176 42.8727L24.6805 55.8784L47.2019 42.8731L38.5696 37.8811L29.744 42.979C29.6689 43.0203 29.5844 43.0417 29.4987 43.041C29.413 43.0404 29.3288 43.0179 29.2543 42.9755C29.1799 42.932 29.1179 42.87 29.0746 42.7955C29.0312 42.721 29.0079 42.6365 29.0069 42.5503V30.4428C29.0069 30.0856 29.1916 29.7633 29.5005 29.5856L39.9871 23.5294C40.0618 23.4868 40.1464 23.4646 40.2324 23.4652C40.3184 23.4658 40.4027 23.4892 40.4767 23.5329C40.63 23.6183 40.7259 23.779 40.7272 23.9541V34.1454L49.3651 39.1348V13.1264H49.3612L26.845 0.121582V10.0968L35.6703 15.1916C35.8214 15.2805 35.9121 15.4429 35.9121 15.6202C35.9121 15.7958 35.8197 15.9569 35.6703 16.0454L25.1797 22.1054C25.029 22.1909 24.8586 22.2358 24.6853 22.2358C24.512 22.2358 24.3417 22.1909 24.1909 22.1054L13.7034 16.0454C13.6289 16.0023 13.5671 15.9402 13.5243 15.8656C13.4815 15.7909 13.4591 15.7063 13.4595 15.6202C13.4587 15.5336 13.4809 15.4483 13.5237 15.3731C13.5666 15.2978 13.6286 15.2352 13.7034 15.1916L22.5274 10.0968L22.5278 0.121582Z" fill="#005C3D"/>
</svg>
