<svg width="57" height="56" viewBox="0 0 57 56" fill="none" xmlns="http://www.w3.org/2000/svg">
<path fill-rule="evenodd" clip-rule="evenodd" d="M28.2436 55.8784C43.6404 55.8784 56.122 43.3967 56.122 28C56.122 12.6032 43.6404 0.121582 28.2436 0.121582C12.8469 0.121582 0.365234 12.6032 0.365234 28C0.365234 43.3967 12.8469 55.8784 28.2436 55.8784ZM35.3736 43.4994C42.1905 40.2802 44.3281 34.3332 44.8093 32.016C42.3163 34.5693 39.559 37.1559 37.7037 35.3648C37.7037 35.3648 37.6023 25.8059 37.6023 21.8862C37.6023 16.6154 42.6011 12.6866 42.6011 12.6866C39.8515 13.1755 36.5515 14.1557 33.0474 17.5943C32.7318 17.9074 32.4316 18.2372 32.1493 18.5823C30.6481 17.4327 28.7017 17.7778 28.7017 17.7778C29.7525 18.3552 30.8033 20.0373 30.8033 21.4307V35.1197C30.8033 35.1197 28.5105 37.1367 26.7437 37.1367C26.346 37.1392 25.9521 37.0469 25.5967 36.8672C25.2413 36.6876 24.9346 36.4246 24.7011 36.1025C24.5612 35.9203 24.4458 35.7202 24.356 35.5085V18.5938C23.8337 19.025 22.0683 19.3804 22.0683 16.4498C22.0683 14.6292 23.3795 12.4595 25.716 11.129C22.5083 11.6178 19.5047 13.0035 17.0515 15.1257C15.1872 16.7373 13.6963 18.735 12.6826 20.9803C11.669 23.2257 11.1558 25.6661 11.1802 28.1296C11.1802 28.1296 12.8879 22.7933 15.0268 22.3006C15.3386 22.2185 15.6645 22.2108 15.9801 22.2775C16.2958 22.3442 16.5909 22.4828 16.8423 22.6843C17.0938 22.8857 17.2953 23.1423 17.4313 23.4348C17.566 23.7274 17.6314 24.0481 17.6199 24.3702V36.9019C17.6199 38.1721 16.8013 38.4493 16.0443 38.4364C15.531 38.4005 15.0255 38.3055 14.5341 38.1516C16.0956 40.2661 18.1254 41.9905 20.4644 43.1902C22.8034 44.3898 25.3875 45.0327 28.0165 45.0673L32.6356 40.4239L35.3736 43.4994Z" fill="#005C3D"/>
</svg>
