<svg width="57" height="56" viewBox="0 0 57 56" fill="none" xmlns="http://www.w3.org/2000/svg">
<path fill-rule="evenodd" clip-rule="evenodd" d="M28.2441 55.8784C43.6409 55.8784 56.1225 43.3967 56.1225 28C56.1225 12.6032 43.6409 0.121582 28.2441 0.121582C12.8474 0.121582 0.365723 12.6032 0.365723 28C0.365723 43.3967 12.8474 55.8784 28.2441 55.8784ZM35.3741 43.4994C42.191 40.2802 44.3286 34.3332 44.8098 32.016C42.3168 34.5693 39.5595 37.1559 37.7041 35.3648C37.7041 35.3648 37.6028 25.8059 37.6028 21.8862C37.6028 16.6154 42.6016 12.6866 42.6016 12.6866C39.852 13.1755 36.552 14.1557 33.0479 17.5943C32.7323 17.9074 32.432 18.2372 32.1498 18.5823C30.6486 17.4327 28.7022 17.7778 28.7022 17.7778C29.753 18.3552 30.8038 20.0373 30.8038 21.4307V35.1197C30.8038 35.1197 28.511 37.1367 26.7442 37.1367C26.3465 37.1392 25.9526 37.0469 25.5972 36.8672C25.2418 36.6876 24.9351 36.4246 24.7016 36.1025C24.5617 35.9203 24.4463 35.7202 24.3564 35.5085V18.5938C23.8342 19.025 22.0687 19.3804 22.0687 16.4498C22.0687 14.6292 23.38 12.4595 25.7165 11.129C22.5088 11.6178 19.5052 13.0035 17.052 15.1257C15.1877 16.7373 13.6968 18.735 12.6831 20.9803C11.6695 23.2257 11.1563 25.6661 11.1807 28.1296C11.1807 28.1296 12.8884 22.7933 15.0273 22.3006C15.3391 22.2185 15.665 22.2108 15.9806 22.2775C16.2962 22.3442 16.5913 22.4828 16.8428 22.6843C17.0943 22.8857 17.2957 23.1423 17.4318 23.4348C17.5665 23.7274 17.6319 24.0481 17.6204 24.3702V36.9019C17.6204 38.1721 16.8018 38.4493 16.0448 38.4364C15.5315 38.4005 15.026 38.3055 14.5346 38.1516C16.0961 40.2661 18.1259 41.9905 20.4649 43.1902C22.8039 44.3898 25.388 45.0326 28.017 45.0673L32.636 40.4239L35.3741 43.4994Z" fill="#5CD6AD"/>
</svg>
