<svg width="83" height="82" viewBox="0 0 83 82" fill="none" xmlns="http://www.w3.org/2000/svg">
<path d="M10.3219 78.0544C8.7478 79.6285 6.19559 79.6285 4.62145 78.0544C3.0473 76.4802 3.0473 73.9281 4.62144 72.3539L25.7272 51.2481C31.2756 45.6997 31.2756 36.704 25.7272 31.1556L4.0411 9.46945C2.43886 7.86721 2.43886 5.26947 4.0411 3.66723C5.64334 2.06499 8.24108 2.06499 9.84332 3.66723L31.5294 25.3534C37.0779 30.9018 46.0736 30.9018 51.622 25.3534L73.7812 3.19422C75.3553 1.62007 77.9075 1.62007 79.4816 3.19422C81.0558 4.76837 81.0558 7.32057 79.4816 8.89472L57.3225 31.0538C51.7741 36.6022 51.7741 45.598 57.3225 51.1464L78.9056 72.7295C80.5079 74.3318 80.5079 76.9295 78.9056 78.5318C77.3034 80.134 74.7057 80.134 73.1034 78.5318L51.5203 56.9486C45.9719 51.4002 36.9761 51.4002 31.4277 56.9486L10.3219 78.0544Z" stroke="#005E3E" stroke-width="4"/>
</svg>
