<svg width="32" height="32" viewBox="0 0 32 32" fill="none" xmlns="http://www.w3.org/2000/svg">
  <path
    d="M20.0688 5.59919C22.0033 5.94423 23.8599 6.52893 25.5766 7.32802C28.6693 11.905 30.1973 17.0473 29.638 22.9713C27.3105 24.6689 25.0733 25.7082 22.8489 26.4021C22.3987 25.759 21.9802 25.0856 21.6021 24.3818C22.3083 24.1023 22.995 23.7841 23.6494 23.3951C23.7595 23.3415 23.8277 23.2363 23.8346 23.1196C23.8413 23.0058 23.7893 22.8988 23.7021 22.8307C23.627 22.7694 23.5523 22.7116 23.4806 22.6563L23.4795 22.6554C23.4081 22.6003 23.3397 22.5474 23.2717 22.4919C23.1553 22.3859 23.0031 22.3945 22.9065 22.4405C18.4414 24.5017 13.5726 24.5023 9.05275 22.4402C8.95802 22.3954 8.81036 22.3865 8.69515 22.4859C8.62256 22.539 8.55058 22.5946 8.48166 22.6478L8.48047 22.6488C8.40661 22.7058 8.33617 22.7602 8.26628 22.8111L8.25042 22.8226L8.23655 22.8365C8.16021 22.9128 8.13008 23.0153 8.13543 23.1063C8.14085 23.1985 8.18727 23.3159 8.30736 23.3797C8.97177 23.7555 9.64892 24.0855 10.3601 24.3691C9.99152 25.0741 9.57179 25.7488 9.10982 26.3932C6.90734 25.6993 4.67952 24.6616 2.36222 22.9714C1.89117 17.8368 2.87924 12.6535 6.43007 7.31881C8.15537 6.5238 9.99364 5.94224 11.9206 5.5987C12.1533 6.01305 12.4008 6.51362 12.5688 6.92177L12.6435 7.10303L12.8373 7.07379C14.9339 6.75752 17.0661 6.75752 19.1627 7.07379L19.3544 7.10271L19.4301 6.92422C19.5986 6.52703 19.8461 6.0161 20.0688 5.59919ZM8.58999 17.0533C8.58999 18.7247 9.82342 20.1299 11.36 20.1299C12.9245 20.1299 14.1295 18.7235 14.13 17.0543C14.1438 15.3964 12.9376 13.9766 11.36 13.9766C9.79514 13.9766 8.58999 15.3836 8.58999 17.0533ZM17.8833 17.0533C17.8833 18.7247 19.1168 20.1299 20.6533 20.1299C22.232 20.1299 23.4228 18.7226 23.4233 17.0543C23.4371 15.3964 22.2309 13.9766 20.6533 13.9766C19.0885 13.9766 17.8833 15.3836 17.8833 17.0533Z"
    fill="#FFF" />
</svg>