<svg width="34" height="32" viewBox="0 0 34 32" fill="none" xmlns="http://www.w3.org/2000/svg">
  <path fill-rule="evenodd" clip-rule="evenodd"
    d="M16.9985 0.533264C8.19196 0.533264 1.04999 7.45791 1.04999 16.0004C1.04999 22.833 5.61972 28.6305 11.9578 30.6766C12.7558 30.8181 13.0466 30.3406 13.0466 29.9304C13.0466 29.5628 13.0329 28.5907 13.0251 27.3002C8.58853 28.2346 7.65245 25.2266 7.65245 25.2266C6.92689 23.4397 5.88117 22.964 5.88117 22.964C4.43299 22.0051 5.99084 22.024 5.99084 22.024C7.59175 22.1333 8.43383 23.6183 8.43383 23.6183C9.85654 25.9814 12.1674 25.2987 13.076 24.9028C13.2209 23.9039 13.6332 23.2221 14.0885 22.8358C10.5468 22.4445 6.82312 21.1182 6.82312 15.1915C6.82312 13.5023 7.44488 12.1227 8.46515 11.0413C8.30066 10.6501 7.75332 9.07771 8.62182 6.94801C8.62182 6.94801 9.96032 6.53211 13.0075 8.53269C14.2794 8.18993 15.6443 8.01902 17.0005 8.01237C18.3556 8.01902 19.7196 8.18993 20.9935 8.53269C24.0387 6.53211 25.3752 6.94801 25.3752 6.94801C26.2457 9.07771 25.6983 10.6501 25.5349 11.0413C26.557 12.1227 27.1739 13.5023 27.1739 15.1915C27.1739 21.1334 23.4442 22.4409 19.8919 22.8234C20.4638 23.3011 20.9739 24.2448 20.9739 25.688C20.9739 27.755 20.9543 29.4233 20.9543 29.9304C20.9543 30.3443 21.2422 30.8257 22.051 30.6747C28.3841 28.6248 32.95 22.8319 32.95 16.0004C32.95 7.45791 25.8079 0.533264 16.9985 0.533264Z"
    fill="#010906" />
</svg>