<svg width="32" height="32" viewBox="0 0 32 32" fill="none" xmlns="http://www.w3.org/2000/svg">
  <path fill-rule="evenodd" clip-rule="evenodd"
    d="M4.26666 2.1333C3.08847 2.1333 2.13333 3.08844 2.13333 4.26663V27.7333C2.13333 28.9115 3.08847 29.8666 4.26666 29.8666H27.7333C28.9116 29.8666 29.8667 28.9115 29.8667 27.7333V4.26663C29.8667 3.08844 28.9116 2.1333 27.7333 2.1333H4.26666ZM6.50666 12.8H10.56V25.6H6.50666V12.8ZM10.8267 8.54397C10.8267 9.81055 9.79991 10.8373 8.53333 10.8373C7.26677 10.8373 6.24 9.81055 6.24 8.54397C6.24 7.27739 7.26677 6.25063 8.53333 6.25063C9.79991 6.25063 10.8267 7.27739 10.8267 8.54397ZM25.6 17.8285C25.6 13.9777 23.1113 12.4807 20.6389 12.4807C19.8294 12.4408 19.0234 12.6105 18.3013 12.9729C17.753 13.2481 17.179 13.8778 16.7363 14.9728H16.6225V12.8009H12.8V25.61H16.8665V18.7972C16.8077 18.0994 17.031 17.1977 17.4878 16.661C17.9447 16.1244 18.5982 15.9962 19.0937 15.9311H19.2482C20.5413 15.9311 21.501 16.7317 21.501 18.7492V25.61H25.5674L25.6 17.8285Z"
    fill="#010906" />
</svg>