<svg width="32" height="32" viewBox="0 0 32 32" fill="none" xmlns="http://www.w3.org/2000/svg">
  <g clip-path="url(#clip0_2919_6797)">
    <path
      d="M12.55 20.8V21.2332L12.9252 21.0164L21.2291 16.2164L21.6036 16L21.2291 15.7835L12.9252 10.9835L12.55 10.7667V11.2V20.8ZM31.4947 11.3307L31.4947 11.3307L31.495 11.3338C31.6064 12.6076 31.654 13.7042 31.654 14.656V14.6649L31.6547 14.6738L31.75 16.0089C31.7496 19.5011 31.4937 22.0475 31.0549 23.6618C30.6783 25.0168 29.8165 25.8785 28.4614 26.255C27.7405 26.4544 26.3917 26.5981 24.2767 26.6942L24.2746 26.6943C22.199 26.8061 20.2995 26.854 18.544 26.854V26.8538L18.5346 26.8541L15.9953 26.95C12.6481 26.9499 9.93487 26.8859 7.85439 26.7664C5.76709 26.6464 4.3346 26.4713 3.53817 26.2549C2.18312 25.8782 1.3214 25.0163 0.94494 23.6611C0.743401 22.9323 0.600906 21.9432 0.505361 20.6693L0.50538 20.6693L0.505109 20.6662C0.39365 19.3924 0.346061 18.2957 0.346061 17.344V17.3351L0.345425 17.3262L0.250062 15.9911C0.250496 12.4989 0.506406 9.95253 0.945122 8.33824C1.32173 6.98315 2.18361 6.1214 3.53882 5.74491C4.25977 5.54552 5.60848 5.40186 7.7234 5.30573L7.7234 5.30574L7.72549 5.30563C9.80111 5.19386 11.7006 5.14599 13.456 5.14599V5.14617L13.4655 5.14581L16.0048 5.04999C19.352 5.05005 22.0652 5.11401 24.1457 5.23358C26.2328 5.35353 27.6652 5.52865 28.4617 5.74503C29.8168 6.12163 30.6786 6.98347 31.0551 8.33863C31.2566 9.06741 31.3992 10.0566 31.4947 11.3307Z"
      fill="#010906" />
  </g>
  <defs>
    <clipPath id="clip0_2919_6797">
      <rect width="32" height="32" fill="white" />
    </clipPath>
  </defs>
</svg>